<?xml version="1.0" encoding="UTF-8"?>
<svg id="Layer_3" data-name="Layer 3" xmlns="http://www.w3.org/2000/svg" viewBox="0 0 1720.23 490.21">
  <defs>
    <style>
      .cls-1 {
        fill: #fff;
      }
    </style>
  </defs>
  <path class="cls-1" d="M535.75,223.92s0,30.79-37.18,43.11c-8.38,43.31-37.48,50.13-48.16,51.18-.96,.08-1.79,.12-2.42,.14h-1.54l-26.69,.02v-2.07h17.62c25.76,0,46.41-21.8,44.45-47.49-.18-2.41-.48-3.83-.48-3.83-23.77-3.82-43.54-5.32-57.13-3.22-27.2,4.17-49.04,24.92-53.58,51.9-.04,.21-.08,.39-.1,.6h0s16.38,2.05,16.38,2.05v2.06h-22.58c0-17.81,6.32-34.13,16.87-46.88,1.52-1.89,3.16-3.67,4.89-5.4,13.47-13.36,32.07-21.64,52.59-21.64l59.88,2.05s30.98-2.05,37.18-22.58Zm-398.9,0s0,30.79,37.18,43.11c8.38,43.31,37.48,50.13,48.16,51.18,.96,.08,1.79,.12,2.42,.14h1.54s26.69,.02,26.69,.02v-2.07s-17.62,0-17.62,0c-25.76,0-46.41-21.8-44.45-47.49,.18-2.41,.48-3.83,.48-3.83,23.77-3.82,43.54-5.32,57.13-3.22,27.2,4.17,49.04,24.92,53.58,51.9,.04,.21,.08,.39,.1,.6h0s-16.38,2.05-16.38,2.05v2.06s22.58-.01,22.58-.01c0-17.8-6.32-34.12-16.87-46.87-1.52-1.89-3.16-3.67-4.89-5.4-13.47-13.36-32.07-21.64-52.59-21.64l-59.88,2.05s-30.98-2.05-37.18-22.58Zm260.48-1.42c6.15-10.79,20.47-27.98,52.44-39.54,17.39-6.29,35.64-7.78,53.75-3.68,6.53,1.48,12.35,4.25,18.64,6.32,2.67,.88,5.33,1.32,8.19,1.35,.04,0,.1,0,.16,0,3.02-.2,4.07-4.1,1.65-5.9-29.75-22.15-67.02-24.84-101.54-9.37-18.13,8.12-47.03,25.66-40.58,49.72,.95,3.55,5.51,4.24,7.29,1.11Zm-111.93,.07c6.45-24.05-22.45-41.59-40.58-49.72-34.51-15.46-71.78-12.78-101.54,9.37-2.42,1.8-1.37,5.71,1.65,5.9,.06,0,.12,0,.16,0,2.86-.04,5.52-.47,8.19-1.35,6.29-2.06,12.11-4.84,18.64-6.32,18.11-4.11,36.36-2.62,53.75,3.68,31.97,11.56,46.29,28.75,52.44,39.54,1.78,3.13,6.34,2.44,7.29-1.11Zm62.5-90.63v72.71c0,6.41-5.19,11.61-11.61,11.61s-11.61-5.2-11.61-11.61v-72.71h-16.23v72.64c0,15.37,12.46,27.84,27.84,27.84s27.84-12.47,27.84-27.84v-72.64h-16.23Z"/>
  <g>
    <path class="cls-1" d="M724.47,232.82h-10.64v78.24l-14.56-6.24v-11.44c-8.64,11.15-17.12,16.72-25.44,16.72-5.28,0-11.04-2.21-17.28-6.64-5.33-3.79-9.76-8.21-13.28-13.28-4.16-5.97-6.21-11.79-6.16-17.44,.05-5.17,2.91-11.17,8.56-18,6.35-7.68,14-11.52,22.96-11.52,5.71,0,11.44,2.43,17.2,7.28,1.76,1.44,6.24,6.08,13.44,13.92v-31.6h-68.48v-9.6h68.48c0-11.03-.93-19.65-2.8-25.89-2.77-9.27-8.96-20.29-18.56-33.08-.21-.11-.32-.53-.32-1.28,0-.64,.16-1.06,.48-1.28h15.28c13.76,15.18,20.64,35.69,20.64,61.52h10.48v9.6Zm-29.04,36.48c0-4.16-2.27-7.73-6.8-10.72-4.05-2.67-8.27-4-12.64-4-3.2,0-7.2,1.49-12,4.48-10.45,6.51-15.68,14.19-15.68,23.04,0,4.85,1.31,9.07,3.92,12.64,2.88,4,6.64,6,11.28,6s9.92-2.19,15.36-6.56c3.79-3.04,7.31-6.77,10.56-11.2,4-5.44,6-10,6-13.68Z"/>
    <path class="cls-1" d="M807.35,232.82h-21.84v15.81c2.51,.59,4.32,1.31,5.44,2.17v9.47c-6.35-2.24-12.96-3.36-19.84-3.36-4.96,0-9.76,.83-14.4,2.49-6.19,2.2-9.31,5.33-9.36,9.4-.11,4.28,5.95,6.43,18.16,6.43,.27,0,2-.08,5.2-.24l4.8-.24v7.36c-7.25,.21-11.79,.4-13.6,.56-12.75,1.12-19.12,4.8-19.12,11.04,0,3.47,2.21,6.19,6.64,8.16,3.47,1.55,7.2,2.32,11.2,2.32,17.33,0,31.36-7.68,42.08-23.04v20.24c-9.17,5.81-20.03,8.72-32.56,8.72-13.71,0-25.55-3.18-35.52-9.53-4.85-3.1-7.28-6.65-7.28-10.65s1.71-7.29,5.12-10.17c2.08-1.76,5.52-3.79,10.32-6.09l-5.28-3.04c-3.15-1.81-4.72-4.24-4.72-7.29,0-6.62,4.99-11.37,14.96-14.26,7.57-2.19,16.08-3.28,25.52-3.28v-12.97h-51.28v-9.6h85.36v9.6Z"/>
    <path class="cls-1" d="M890.55,232.82h-21.84v15.81c2.51,.59,4.32,1.31,5.44,2.17v9.47c-6.35-2.24-12.96-3.36-19.84-3.36-4.96,0-9.76,.83-14.4,2.49-6.19,2.2-9.31,5.33-9.36,9.4-.11,4.28,5.95,6.43,18.16,6.43,.27,0,2-.08,5.2-.24l4.8-.24v7.36c-7.25,.21-11.79,.4-13.6,.56-12.75,1.12-19.12,4.8-19.12,11.04,0,3.47,2.21,6.19,6.64,8.16,3.47,1.55,7.2,2.32,11.2,2.32,17.33,0,31.36-7.68,42.08-23.04v20.24c-9.17,5.81-20.03,8.72-32.56,8.72-13.71,0-25.55-3.18-35.52-9.53-4.85-3.1-7.28-6.65-7.28-10.65s1.71-7.29,5.12-10.17c2.08-1.76,5.52-3.79,10.32-6.09l-5.28-3.04c-3.15-1.81-4.72-4.24-4.72-7.29,0-6.62,4.99-11.37,14.96-14.26,7.57-2.19,16.08-3.28,25.52-3.28v-12.97h-51.28v-9.6h85.36v9.6Z"/>
    <path class="cls-1" d="M980.32,232.82h-91.76v-9.6h91.76v9.6Zm-6.4,44.32c0,5.87-1.76,11.41-5.28,16.64-3.25,4.85-7.55,8.81-12.88,11.88-5.33,3.07-10.27,4.6-14.8,4.6s-9.95-2.48-16.56-7.44c-3.2-2.4-7.89-6.53-14.08-12.4v67.84l-12.8-6.72v-105.84h12.48v19.52l4.88-5.12c11.25-11.79,20.37-17.68,27.36-17.68,7.57,0,14.8,3.92,21.68,11.76,6.67,7.63,10,15.28,10,22.96Zm-7.92-9.28c0-4.05-2.11-7.95-6.32-11.68-2.08-1.87-4.72-2.8-7.92-2.8-6.29,0-14.11,3.81-23.44,11.44-9.6,7.84-14.4,14.8-14.4,20.88,0,3.57,3.33,6.72,10,9.44,2.99,1.23,5.89,1.84,8.72,1.84,9.28,0,17.33-3.57,24.16-10.72,6.13-6.4,9.2-12.53,9.2-18.4Z"/>
    <path class="cls-1" d="M1057.04,232.82h-53.28v12.88c.21,0,.43,.11,.64,.32,.21,.21,.4,.32,.56,.32-.43,0-.67-.03-.72-.08,0-.27,3.97-1.12,11.92-2.56,2.93-.53,5.84-.8,8.72-.8,12,0,19.71,3.36,23.12,10.08,2.29,4.48,3.44,13.52,3.44,27.12v30.8c-1.12-.43-5.36-2.16-12.72-5.2,0-1.71-.35-2.8-1.04-3.28-2.83,1.65-5.15,2.91-6.96,3.76-5.76,2.72-12.45,4.08-20.08,4.08-10.51,0-18.61-3.31-24.32-9.92-2.77-3.2-4.16-6.77-4.16-10.72,0-4.43,2.19-8.83,6.56-13.2,8.48-8.48,19.01-12.72,31.6-12.72,7.63,0,13.76,1.76,18.4,5.28v-7.36c-2.35-2.99-4.63-4.99-6.84-6-2.21-1.01-5.24-1.47-9.08-1.36-8.59,.16-16.45,1.73-23.6,4.72-3.2,1.33-6.32,2.53-9.36,3.6v-5.94c.69-.59,1.71-1.47,3.04-2.65,.21-.27,.35-.43,.4-.48v-20.7h-16.4v-9.6h80.16v9.6Zm-18.32,50.72c0-2.35-2.8-4.45-8.4-6.32-4.64-1.55-8.51-2.32-11.6-2.32-11.25,0-20.27,4.05-27.04,12.16-2.72,3.25-4.08,5.92-4.08,8,1.12,3.89,5.52,5.84,13.2,5.84,9.92,0,18.99-2.48,27.2-7.44,7.15-4.32,10.72-7.63,10.72-9.92Z"/>
    <path class="cls-1" d="M1131.28,232.82h-52.48v20.72c3.15-1.81,8.29-4.19,15.44-7.12,2.93-.8,6.48-1.2,10.64-1.2,5.71,0,10.8,1.57,15.28,4.72,5.01,3.47,7.52,7.94,7.52,13.43,0,7.41-4.23,12.79-12.71,16.15-3.52,1.39-6.55,2.08-9.11,2.08l18.51,22.6-10.13,7.34-28.56-33.92,5.28-10.96c2.83,.8,5.79,1.2,8.88,1.2,4.53,0,8.24-1.07,11.12-3.2,3.25-2.35,4.88-5.71,4.88-10.08s-3.03-6.4-9.08-6.4c-4.25,0-8.76,2.06-13.54,6.18-3.4,2.94-6.5,6.5-9.32,10.67-3.4,5.03-5.1,9.33-5.1,12.91v33.61l-13.92-6.18v-72.54h-10.16v-9.6h9.68c0-15.29-2.77-27.99-8.32-38.11-1.07-1.97-3.12-4.93-6.16-8.87-2.88-3.78-4.88-6.79-6-9.03h16.24c3.15,2.93,6.4,7.75,9.76,14.46,5.71,11.4,8.56,25.25,8.56,41.54h52.8v9.6Z"/>
    <path class="cls-1" d="M1227.37,232.82h-26.56v77.92c-.53,0-5.17-2.08-13.92-6.25v-71.68h-13.6v-9.6h12.96c0-1.28-1.23-3.62-3.68-7.03l-4.72-6.55c-1.33-2.34-2-4.92-2-7.75,0-2.98,1.2-6.15,3.6-9.5,2.13-2.98,4.61-5.38,7.44-7.19,3.63-2.29,7.81-3.43,12.56-3.43,9.76,0,16.88,3.39,21.36,10.16,2.08,3.15,3.33,6.83,3.76,11.04-4.75-7.36-10.64-11.04-17.68-11.04-5.81,0-10.24,2.26-13.28,6.78-1.44,2.13-2.16,4.34-2.16,6.62,0,3.62,2.91,8.09,8.72,13.41,.43,1.17,.64,2.66,.64,4.47h26.56v9.6Z"/>
    <path class="cls-1" d="M1250.33,213.64v98.54c-.53-.16-1.23-.45-2.08-.88l-4.16-2.16c-4.75-2.46-7.25-3.68-7.52-3.68v-91.65c0-5.6-1.09-11.55-3.28-17.85-3.04-8.81-7.76-16.81-14.16-24.01l-5.04-5.68h17.04c8.85,8.86,14.67,19.72,17.44,32.58,1.17,5.44,1.76,10.38,1.76,14.81Zm-16.24,19.17h-9.12v-9.6h9.12v9.6Zm27.36,0h-8.48v-9.6h8.48v9.6Z"/>
    <path class="cls-1" d="M1349.77,232.82h-66.96v51.34c0,3.42,.72,6.94,2.16,10.57,2.93,7.42,7.79,11.13,14.56,11.13,9.12,0,16.05-3.81,20.8-11.44,3.68-5.87,5.52-11.39,5.52-16.56v-31.84h16.24v68.16c-1.27-.75-3.64-1.89-7.13-3.44l-9.11-4.08v-6.4c-6.31,4.59-11.71,7.49-16.2,8.72-2.73,.75-5.96,1.12-9.71,1.12-11.87,0-21.15-5.21-27.84-15.62-3.05-4.75-4.57-9.93-4.57-15.54v-46.13h-9.68v-9.6h91.92v9.6Z"/>
    <path class="cls-1" d="M1419.86,232.82h-40.48v64.47c0,1.82,.59,3.58,1.76,5.29,1.23,1.87,2.72,2.8,4.48,2.8,7.95,0,11.92-8.21,11.92-24.64l16.08,9.2c-6.13,13.6-15.63,20.37-28.48,20.32-7.47-.05-13.28-3.47-17.44-10.25-1.82-2.94-2.72-5.87-2.72-8.81v-58.38h-16.72v-9.6h16.72v-26.8l14.4,9.97v16.83h40.48v9.6Z"/>
    <path class="cls-1" d="M1503.06,232.82h-21.84v15.81c2.51,.59,4.32,1.31,5.44,2.17v9.47c-6.35-2.24-12.96-3.36-19.84-3.36-4.96,0-9.76,.83-14.4,2.49-6.19,2.2-9.31,5.33-9.36,9.4-.11,4.28,5.95,6.43,18.16,6.43,.27,0,2-.08,5.2-.24l4.8-.24v7.36c-7.25,.21-11.79,.4-13.6,.56-12.75,1.12-19.12,4.8-19.12,11.04,0,3.47,2.21,6.19,6.64,8.16,3.47,1.55,7.2,2.32,11.2,2.32,17.33,0,31.36-7.68,42.08-23.04v20.24c-9.17,5.81-20.03,8.72-32.56,8.72-13.71,0-25.55-3.18-35.52-9.53-4.85-3.1-7.28-6.65-7.28-10.65s1.71-7.29,5.12-10.17c2.08-1.76,5.52-3.79,10.32-6.09l-5.28-3.04c-3.15-1.81-4.72-4.24-4.72-7.29,0-6.62,4.99-11.37,14.96-14.26,7.57-2.19,16.08-3.28,25.52-3.28v-12.97h-51.28v-9.6h85.36v9.6Z"/>
    <path class="cls-1" d="M1583.38,232.82h-8.72v30.4c-3.15-1.87-7.68-3.47-13.6-4.8-5.55-1.28-10.35-1.92-14.4-1.92-9.76,0-17.95,1.73-24.56,5.2-3.73,1.97-5.6,4.56-5.6,7.76,0,4.27,2.24,6.4,6.72,6.4,2.72,0,6.27-.8,10.64-2.4,2.83-1.01,6.45-2.29,10.88-3.84,1.87-.64,5.17-.96,9.92-.96,9.23,0,16.11,2.85,20.64,8.56,2.19,2.72,3.28,5.92,3.28,9.6,0,8.48-5.33,15.15-16,20-4.43,2.03-8.64,3.17-12.64,3.44,3.84,3.84,7.49,5.76,10.96,5.76,1.12,0,2.32-.16,3.6-.48l8.08,13.2c-1.65,1.44-5.04,2.16-10.16,2.16-4.16,0-7.68-1.41-10.56-4.24-1.55-1.55-3.74-4.77-6.56-9.68-2.4-4.21-4.4-6.35-6-6.4-9.87-.27-17.47-2.05-22.8-5.36-3.36-2.08-5.04-4.93-5.04-8.56,0-4.48,2.67-6.72,8-6.72,1.97,0,6.09,1.53,12.36,4.6,6.27,3.07,11.43,4.6,15.48,4.6,8.11,0,15.71-1.92,22.8-5.76,3.47-1.87,5.2-4.16,5.2-6.88,0-4.05-3.2-6.08-9.6-6.08-1.97,0-8.35,1.44-19.12,4.32-6.35,1.71-10.24,2.56-11.68,2.56-8.48,0-15.47-4-20.96-12-2.67-3.84-4-7.97-4-12.4-.05-9.01,6.11-15.09,18.48-18.24,5.07-1.28,9.84-1.92,14.32-1.92,5.12,0,12.37,1.25,21.76,3.76v-13.68h-63.68v-9.6h82.56v9.6Z"/>
  </g>
  <g>
    <path class="cls-1" d="M724.47,232.82h-10.64v78.24l-14.56-6.24v-11.44c-8.64,11.15-17.12,16.72-25.44,16.72-5.28,0-11.04-2.21-17.28-6.64-5.33-3.79-9.76-8.21-13.28-13.28-4.16-5.97-6.21-11.79-6.16-17.44,.05-5.17,2.91-11.17,8.56-18,6.35-7.68,14-11.52,22.96-11.52,5.71,0,11.44,2.43,17.2,7.28,1.76,1.44,6.24,6.08,13.44,13.92v-31.6h-68.48v-9.6h68.48c0-11.03-.93-19.65-2.8-25.89-2.77-9.27-8.96-20.29-18.56-33.08-.21-.11-.32-.53-.32-1.28,0-.64,.16-1.06,.48-1.28h15.28c13.76,15.18,20.64,35.69,20.64,61.52h10.48v9.6Zm-29.04,36.48c0-4.16-2.27-7.73-6.8-10.72-4.05-2.67-8.27-4-12.64-4-3.2,0-7.2,1.49-12,4.48-10.45,6.51-15.68,14.19-15.68,23.04,0,4.85,1.31,9.07,3.92,12.64,2.88,4,6.64,6,11.28,6s9.92-2.19,15.36-6.56c3.79-3.04,7.31-6.77,10.56-11.2,4-5.44,6-10,6-13.68Z"/>
    <path class="cls-1" d="M807.35,232.82h-21.84v15.81c2.51,.59,4.32,1.31,5.44,2.17v9.47c-6.35-2.24-12.96-3.36-19.84-3.36-4.96,0-9.76,.83-14.4,2.49-6.19,2.2-9.31,5.33-9.36,9.4-.11,4.28,5.95,6.43,18.16,6.43,.27,0,2-.08,5.2-.24l4.8-.24v7.36c-7.25,.21-11.79,.4-13.6,.56-12.75,1.12-19.12,4.8-19.12,11.04,0,3.47,2.21,6.19,6.64,8.16,3.47,1.55,7.2,2.32,11.2,2.32,17.33,0,31.36-7.68,42.08-23.04v20.24c-9.17,5.81-20.03,8.72-32.56,8.72-13.71,0-25.55-3.18-35.52-9.53-4.85-3.1-7.28-6.65-7.28-10.65s1.71-7.29,5.12-10.17c2.08-1.76,5.52-3.79,10.32-6.09l-5.28-3.04c-3.15-1.81-4.72-4.24-4.72-7.29,0-6.62,4.99-11.37,14.96-14.26,7.57-2.19,16.08-3.28,25.52-3.28v-12.97h-51.28v-9.6h85.36v9.6Z"/>
    <path class="cls-1" d="M890.55,232.82h-21.84v15.81c2.51,.59,4.32,1.31,5.44,2.17v9.47c-6.35-2.24-12.96-3.36-19.84-3.36-4.96,0-9.76,.83-14.4,2.49-6.19,2.2-9.31,5.33-9.36,9.4-.11,4.28,5.95,6.43,18.16,6.43,.27,0,2-.08,5.2-.24l4.8-.24v7.36c-7.25,.21-11.79,.4-13.6,.56-12.75,1.12-19.12,4.8-19.12,11.04,0,3.47,2.21,6.19,6.64,8.16,3.47,1.55,7.2,2.32,11.2,2.32,17.33,0,31.36-7.68,42.08-23.04v20.24c-9.17,5.81-20.03,8.72-32.56,8.72-13.71,0-25.55-3.18-35.52-9.53-4.85-3.1-7.28-6.65-7.28-10.65s1.71-7.29,5.12-10.17c2.08-1.76,5.52-3.79,10.32-6.09l-5.28-3.04c-3.15-1.81-4.72-4.24-4.72-7.29,0-6.62,4.99-11.37,14.96-14.26,7.57-2.19,16.08-3.28,25.52-3.28v-12.97h-51.28v-9.6h85.36v9.6Z"/>
    <path class="cls-1" d="M980.32,232.82h-91.76v-9.6h91.76v9.6Zm-6.4,44.32c0,5.87-1.76,11.41-5.28,16.64-3.25,4.85-7.55,8.81-12.88,11.88-5.33,3.07-10.27,4.6-14.8,4.6s-9.95-2.48-16.56-7.44c-3.2-2.4-7.89-6.53-14.08-12.4v67.84l-12.8-6.72v-105.84h12.48v19.52l4.88-5.12c11.25-11.79,20.37-17.68,27.36-17.68,7.57,0,14.8,3.92,21.68,11.76,6.67,7.63,10,15.28,10,22.96Zm-7.92-9.28c0-4.05-2.11-7.95-6.32-11.68-2.08-1.87-4.72-2.8-7.92-2.8-6.29,0-14.11,3.81-23.44,11.44-9.6,7.84-14.4,14.8-14.4,20.88,0,3.57,3.33,6.72,10,9.44,2.99,1.23,5.89,1.84,8.72,1.84,9.28,0,17.33-3.57,24.16-10.72,6.13-6.4,9.2-12.53,9.2-18.4Z"/>
    <path class="cls-1" d="M1057.04,232.82h-53.28v12.88c.21,0,.43,.11,.64,.32,.21,.21,.4,.32,.56,.32-.43,0-.67-.03-.72-.08,0-.27,3.97-1.12,11.92-2.56,2.93-.53,5.84-.8,8.72-.8,12,0,19.71,3.36,23.12,10.08,2.29,4.48,3.44,13.52,3.44,27.12v30.8c-1.12-.43-5.36-2.16-12.72-5.2,0-1.71-.35-2.8-1.04-3.28-2.83,1.65-5.15,2.91-6.96,3.76-5.76,2.72-12.45,4.08-20.08,4.08-10.51,0-18.61-3.31-24.32-9.92-2.77-3.2-4.16-6.77-4.16-10.72,0-4.43,2.19-8.83,6.56-13.2,8.48-8.48,19.01-12.72,31.6-12.72,7.63,0,13.76,1.76,18.4,5.28v-7.36c-2.35-2.99-4.63-4.99-6.84-6-2.21-1.01-5.24-1.47-9.08-1.36-8.59,.16-16.45,1.73-23.6,4.72-3.2,1.33-6.32,2.53-9.36,3.6v-5.94c.69-.59,1.71-1.47,3.04-2.65,.21-.27,.35-.43,.4-.48v-20.7h-16.4v-9.6h80.16v9.6Zm-18.32,50.72c0-2.35-2.8-4.45-8.4-6.32-4.64-1.55-8.51-2.32-11.6-2.32-11.25,0-20.27,4.05-27.04,12.16-2.72,3.25-4.08,5.92-4.08,8,1.12,3.89,5.52,5.84,13.2,5.84,9.92,0,18.99-2.48,27.2-7.44,7.15-4.32,10.72-7.63,10.72-9.92Z"/>
    <path class="cls-1" d="M1131.28,232.82h-52.48v20.72c3.15-1.81,8.29-4.19,15.44-7.12,2.93-.8,6.48-1.2,10.64-1.2,5.71,0,10.8,1.57,15.28,4.72,5.01,3.47,7.52,7.94,7.52,13.43,0,7.41-4.23,12.79-12.71,16.15-3.52,1.39-6.55,2.08-9.11,2.08l18.51,22.6-10.13,7.34-28.56-33.92,5.28-10.96c2.83,.8,5.79,1.2,8.88,1.2,4.53,0,8.24-1.07,11.12-3.2,3.25-2.35,4.88-5.71,4.88-10.08s-3.03-6.4-9.08-6.4c-4.25,0-8.76,2.06-13.54,6.18-3.4,2.94-6.5,6.5-9.32,10.67-3.4,5.03-5.1,9.33-5.1,12.91v33.61l-13.92-6.18v-72.54h-10.16v-9.6h9.68c0-15.29-2.77-27.99-8.32-38.11-1.07-1.97-3.12-4.93-6.16-8.87-2.88-3.78-4.88-6.79-6-9.03h16.24c3.15,2.93,6.4,7.75,9.76,14.46,5.71,11.4,8.56,25.25,8.56,41.54h52.8v9.6Z"/>
    <path class="cls-1" d="M1227.37,232.82h-26.56v77.92c-.53,0-5.17-2.08-13.92-6.25v-71.68h-13.6v-9.6h12.96c0-1.28-1.23-3.62-3.68-7.03l-4.72-6.55c-1.33-2.34-2-4.92-2-7.75,0-2.98,1.2-6.15,3.6-9.5,2.13-2.98,4.61-5.38,7.44-7.19,3.63-2.29,7.81-3.43,12.56-3.43,9.76,0,16.88,3.39,21.36,10.16,2.08,3.15,3.33,6.83,3.76,11.04-4.75-7.36-10.64-11.04-17.68-11.04-5.81,0-10.24,2.26-13.28,6.78-1.44,2.13-2.16,4.34-2.16,6.62,0,3.62,2.91,8.09,8.72,13.41,.43,1.17,.64,2.66,.64,4.47h26.56v9.6Z"/>
    <path class="cls-1" d="M1250.33,213.64v98.54c-.53-.16-1.23-.45-2.08-.88l-4.16-2.16c-4.75-2.46-7.25-3.68-7.52-3.68v-91.65c0-5.6-1.09-11.55-3.28-17.85-3.04-8.81-7.76-16.81-14.16-24.01l-5.04-5.68h17.04c8.85,8.86,14.67,19.72,17.44,32.58,1.17,5.44,1.76,10.38,1.76,14.81Zm-16.24,19.17h-9.12v-9.6h9.12v9.6Zm27.36,0h-8.48v-9.6h8.48v9.6Z"/>
    <path class="cls-1" d="M1349.77,232.82h-66.96v51.34c0,3.42,.72,6.94,2.16,10.57,2.93,7.42,7.79,11.13,14.56,11.13,9.12,0,16.05-3.81,20.8-11.44,3.68-5.87,5.52-11.39,5.52-16.56v-31.84h16.24v68.16c-1.27-.75-3.64-1.89-7.13-3.44l-9.11-4.08v-6.4c-6.31,4.59-11.71,7.49-16.2,8.72-2.73,.75-5.96,1.12-9.71,1.12-11.87,0-21.15-5.21-27.84-15.62-3.05-4.75-4.57-9.93-4.57-15.54v-46.13h-9.68v-9.6h91.92v9.6Z"/>
    <path class="cls-1" d="M1419.86,232.82h-40.48v64.47c0,1.82,.59,3.58,1.76,5.29,1.23,1.87,2.72,2.8,4.48,2.8,7.95,0,11.92-8.21,11.92-24.64l16.08,9.2c-6.13,13.6-15.63,20.37-28.48,20.32-7.47-.05-13.28-3.47-17.44-10.25-1.82-2.94-2.72-5.87-2.72-8.81v-58.38h-16.72v-9.6h16.72v-26.8l14.4,9.97v16.83h40.48v9.6Z"/>
    <path class="cls-1" d="M1503.06,232.82h-21.84v15.81c2.51,.59,4.32,1.31,5.44,2.17v9.47c-6.35-2.24-12.96-3.36-19.84-3.36-4.96,0-9.76,.83-14.4,2.49-6.19,2.2-9.31,5.33-9.36,9.4-.11,4.28,5.95,6.43,18.16,6.43,.27,0,2-.08,5.2-.24l4.8-.24v7.36c-7.25,.21-11.79,.4-13.6,.56-12.75,1.12-19.12,4.8-19.12,11.04,0,3.47,2.21,6.19,6.64,8.16,3.47,1.55,7.2,2.32,11.2,2.32,17.33,0,31.36-7.68,42.08-23.04v20.24c-9.17,5.81-20.03,8.72-32.56,8.72-13.71,0-25.55-3.18-35.52-9.53-4.85-3.1-7.28-6.65-7.28-10.65s1.71-7.29,5.12-10.17c2.08-1.76,5.52-3.79,10.32-6.09l-5.28-3.04c-3.15-1.81-4.72-4.24-4.72-7.29,0-6.62,4.99-11.37,14.96-14.26,7.57-2.19,16.08-3.28,25.52-3.28v-12.97h-51.28v-9.6h85.36v9.6Z"/>
    <path class="cls-1" d="M1583.38,232.82h-8.72v30.4c-3.15-1.87-7.68-3.47-13.6-4.8-5.55-1.28-10.35-1.92-14.4-1.92-9.76,0-17.95,1.73-24.56,5.2-3.73,1.97-5.6,4.56-5.6,7.76,0,4.27,2.24,6.4,6.72,6.4,2.72,0,6.27-.8,10.64-2.4,2.83-1.01,6.45-2.29,10.88-3.84,1.87-.64,5.17-.96,9.92-.96,9.23,0,16.11,2.85,20.64,8.56,2.19,2.72,3.28,5.92,3.28,9.6,0,8.48-5.33,15.15-16,20-4.43,2.03-8.64,3.17-12.64,3.44,3.84,3.84,7.49,5.76,10.96,5.76,1.12,0,2.32-.16,3.6-.48l8.08,13.2c-1.65,1.44-5.04,2.16-10.16,2.16-4.16,0-7.68-1.41-10.56-4.24-1.55-1.55-3.74-4.77-6.56-9.68-2.4-4.21-4.4-6.35-6-6.4-9.87-.27-17.47-2.05-22.8-5.36-3.36-2.08-5.04-4.93-5.04-8.56,0-4.48,2.67-6.72,8-6.72,1.97,0,6.09,1.53,12.36,4.6,6.27,3.07,11.43,4.6,15.48,4.6,8.11,0,15.71-1.92,22.8-5.76,3.47-1.87,5.2-4.16,5.2-6.88,0-4.05-3.2-6.08-9.6-6.08-1.97,0-8.35,1.44-19.12,4.32-6.35,1.71-10.24,2.56-11.68,2.56-8.48,0-15.47-4-20.96-12-2.67-3.84-4-7.97-4-12.4-.05-9.01,6.11-15.09,18.48-18.24,5.07-1.28,9.84-1.92,14.32-1.92,5.12,0,12.37,1.25,21.76,3.76v-13.68h-63.68v-9.6h82.56v9.6Z"/>
  </g>
</svg>